<svg width="15" height="16" viewBox="0 0 15 16" fill="none" xmlns="http://www.w3.org/2000/svg">
<path d="M12.0846 1.6656H11.526V1.10036C11.526 0.777413 11.2642 0.515625 10.9413 0.515625C10.6183 0.515625 10.3565 0.777413 10.3565 1.10036V1.6656H4.61944V1.10036C4.61944 0.777413 4.35765 0.515625 4.0347 0.515625C3.71175 0.515625 3.44996 0.777413 3.44996 1.10036V1.6656H2.89139C1.29707 1.6656 0 2.96267 0 4.55697V12.5936C0 14.1879 1.29707 15.485 2.89139 15.485H12.0846C13.6789 15.485 14.976 14.1879 14.976 12.5936V4.55697C14.976 2.96267 13.6789 1.6656 12.0846 1.6656ZM2.89139 2.83508H3.44996V3.97532C3.44996 4.29828 3.71175 4.56006 4.0347 4.56006C4.35765 4.56006 4.61944 4.29828 4.61944 3.97532V2.83508H10.3566V3.97532C10.3566 4.29828 10.6183 4.56006 10.9413 4.56006C11.2642 4.56006 11.526 4.29828 11.526 3.97532V2.83508H12.0846C13.0341 2.83508 13.8065 3.60752 13.8065 4.55697V5.11557H1.16948V4.55697C1.16948 3.60752 1.94192 2.83508 2.89139 2.83508ZM12.0846 14.3155H2.89139C1.94192 14.3155 1.16948 13.543 1.16948 12.5936V6.28505H13.8065V12.5936C13.8065 13.543 13.0341 14.3155 12.0846 14.3155ZM5.19445 8.58503C5.19445 8.90798 4.93266 9.16977 4.60971 9.16977H3.45973C3.13678 9.16977 2.87499 8.90798 2.87499 8.58503C2.87499 8.26208 3.13678 8.00029 3.45973 8.00029H4.60971C4.93263 8.00029 5.19445 8.26208 5.19445 8.58503ZM12.101 8.58503C12.101 8.90798 11.8393 9.16977 11.5163 9.16977H10.3663C10.0434 9.16977 9.78158 8.90798 9.78158 8.58503C9.78158 8.26208 10.0434 8.00029 10.3663 8.00029H11.5163C11.8392 8.00029 12.101 8.26208 12.101 8.58503ZM8.64441 8.58503C8.64441 8.90798 8.38262 9.16977 8.05967 9.16977H6.90969C6.58674 9.16977 6.32495 8.90798 6.32495 8.58503C6.32495 8.26208 6.58674 8.00029 6.90969 8.00029H8.05967C8.38259 8.00029 8.64441 8.26208 8.64441 8.58503ZM5.19445 12.035C5.19445 12.3579 4.93266 12.6197 4.60971 12.6197H3.45973C3.13678 12.6197 2.87499 12.3579 2.87499 12.035C2.87499 11.712 3.13678 11.4503 3.45973 11.4503H4.60971C4.93263 11.4503 5.19445 11.712 5.19445 12.035ZM12.101 12.035C12.101 12.3579 11.8393 12.6197 11.5163 12.6197H10.3663C10.0434 12.6197 9.78158 12.3579 9.78158 12.035C9.78158 11.712 10.0434 11.4503 10.3663 11.4503H11.5163C11.8392 11.4503 12.101 11.712 12.101 12.035ZM8.64441 12.035C8.64441 12.3579 8.38262 12.6197 8.05967 12.6197H6.90969C6.58674 12.6197 6.32495 12.3579 6.32495 12.035C6.32495 11.712 6.58674 11.4503 6.90969 11.4503H8.05967C8.38259 11.4503 8.64441 11.712 8.64441 12.035Z" fill="white"/>
</svg>
