<svg width="16" height="14" viewBox="0 0 16 14" fill="none" xmlns="http://www.w3.org/2000/svg">
<path d="M10.8419 0C9.62911 0 8.48018 0.517321 7.65039 1.42263C6.85252 0.517321 5.70358 0 4.4589 0C2.0972 0 0.150391 1.97229 0.150391 4.3649C0.150391 8.37413 7.07592 13.5473 7.36316 13.7737L7.65039 14L7.93762 13.7737C8.22486 13.5473 15.1504 8.27714 15.1504 4.39723C15.1504 1.97229 13.2036 0 10.8419 0ZM7.65039 12.7714C6.37379 11.7691 1.10784 7.50115 1.10784 4.3649C1.10784 2.48961 2.60784 0.969977 4.4589 0.969977C5.57592 0.969977 6.62911 1.51963 7.2355 2.48961L7.61848 3.10393L8.00145 2.48961C8.63975 1.55196 9.66103 0.969977 10.778 0.969977C12.6291 0.969977 14.1291 2.48961 14.1291 4.3649C14.1929 7.08083 9.72486 11.1547 7.65039 12.7714Z" fill="#B47700"/>
</svg>
