<svg width="42" height="41" viewBox="0 0 42 41" fill="none" xmlns="http://www.w3.org/2000/svg">
<path fill-rule="evenodd" clip-rule="evenodd" d="M36.1183 0.303467C33.9759 1.33152 32.28 2.12211 30.6735 2.64413V7.98382C30.6735 8.64459 30.832 9.24261 31.1695 9.81091C32.0942 11.3679 34.3979 12.5937 36.1184 13.6337C37.8388 12.5937 40.1425 11.3678 41.0672 9.81091C41.4047 9.24261 41.5632 8.64468 41.5632 7.98382V2.64413C39.9567 2.12211 38.2608 1.3316 36.1184 0.303467H36.1183ZM39.2721 7.58939C39.2721 7.78404 39.1134 7.94275 38.9188 7.94275H37.0924V9.7691C37.0924 9.96366 36.9337 10.1224 36.7391 10.1224H35.4974C35.3028 10.1224 35.1441 9.96366 35.1441 9.7691V7.94275H33.3177C33.1231 7.94275 32.9644 7.78404 32.9644 7.58939V6.34773C32.9644 6.15317 33.1231 5.99445 33.3177 5.99445H35.1441V4.16811C35.1441 3.97354 35.3028 3.81483 35.4974 3.81483H36.7391C36.9336 3.81483 37.0924 3.97354 37.0924 4.16811V5.99445H38.9188C39.1134 5.99445 39.2721 6.15317 39.2721 6.34773V7.58939ZM12.5647 33.5383V36.0567C12.5647 36.3758 12.3043 36.6362 11.9852 36.6362H9.15636V39.465C9.15636 39.7842 8.89597 40.0446 8.5768 40.0446H6.05847C5.7393 40.0446 5.47891 39.7843 5.47891 39.465V36.6362H2.6501C2.33093 36.6362 2.07055 36.3758 2.07055 36.0567V33.5383C2.07055 33.2191 2.33085 32.9588 2.6501 32.9588H5.47891V30.13C5.47891 29.8108 5.73922 29.5504 6.05847 29.5504H8.5768C8.89597 29.5504 9.15636 29.8108 9.15636 30.13V32.9588H11.9852C12.3043 32.9588 12.5647 33.2191 12.5647 33.5383ZM3.29465 27.1302L0.715797 24.8575C0.373197 24.5552 0.34008 24.0321 0.642028 23.6884C0.944307 23.3457 1.46765 23.3126 1.81099 23.6148L2.56127 24.2763C2.4663 23.5171 2.41886 22.7488 2.41886 21.9805C2.41886 17.0866 4.32494 12.4857 7.78571 9.02495C11.2457 5.56417 15.8475 3.65835 20.7409 3.65835C23.562 3.65835 26.2677 4.28261 28.7836 5.51284C29.1944 5.71411 29.3643 6.21005 29.1637 6.6207C28.9627 7.03136 28.4665 7.20183 28.0561 7.00073C25.7683 5.88127 23.3079 5.31422 20.7409 5.31422C11.5512 5.31422 4.0749 12.7905 4.0749 21.9806C4.0749 22.7347 4.12557 23.4882 4.22567 24.2317L4.89058 23.1049C5.12315 22.7117 5.63043 22.5808 6.02452 22.8127C6.41779 23.0453 6.54861 23.5529 6.31687 23.9469L4.55601 26.93C4.42992 27.142 4.21656 27.2876 3.97331 27.3266C3.92902 27.3332 3.88638 27.3367 3.84291 27.3367C3.64263 27.3367 3.44724 27.2645 3.2949 27.1304L3.29465 27.1302ZM40.8401 20.2725C40.5377 20.616 40.0145 20.6492 39.6719 20.3469L38.9208 19.6854C39.0161 20.4446 39.064 21.213 39.064 21.9804C39.064 26.8753 37.1583 31.4759 33.6975 34.9367C30.2368 38.3976 25.6349 40.3035 20.7408 40.3035C18.5651 40.3035 16.4357 39.9259 14.4123 39.1808C13.9832 39.0227 13.7634 38.5465 13.9214 38.1178C14.0793 37.6888 14.5548 37.4686 14.9843 37.6268C16.8241 38.304 18.7613 38.6477 20.7408 38.6477C29.9313 38.6477 37.408 31.1705 37.408 21.9804C37.408 21.227 37.3569 20.4736 37.2568 19.7293L36.592 20.8569C36.3591 21.2501 35.8518 21.381 35.4577 21.1484C35.0644 20.9166 34.9336 20.409 35.1653 20.0149L36.9262 17.0318C37.0522 16.8191 37.2655 16.6743 37.5101 16.6353C37.7534 16.5964 38.0019 16.6685 38.1874 16.8315L40.7663 19.1042C41.1089 19.4064 41.1424 19.9297 40.8401 20.2725ZM21.9597 28.5266V33.8426C22.6269 33.9232 23.2838 34.1091 23.9088 34.4006C24.2895 34.5787 24.4541 35.0317 24.2759 35.4133C24.1471 35.6896 23.8724 35.8526 23.586 35.8526C23.4778 35.8526 23.3685 35.829 23.264 35.7802C21.9513 35.1673 20.4453 35.1673 19.1322 35.7802C18.7516 35.9585 18.2985 35.7939 18.1203 35.4133C17.942 35.0317 18.1067 34.5787 18.4878 34.4006C19.1124 34.1091 19.77 33.9232 20.4372 33.8432V28.289C18.947 24.9588 16.8167 22.6725 13.5472 20.8908C12.7844 20.4466 12.3239 21.3335 12.9056 21.6747C15.2062 23.0196 16.7131 24.2298 18.0197 26.3572C11.5457 27.4146 9.56478 20.2387 6.20112 19.544C11.1259 15.0012 19.3069 17.9491 20.0111 24.4729C20.5642 25.2413 21.0589 26.0733 21.5044 26.9795C25.35 24.1623 27.4759 21.0028 28.5488 16.5616C28.7785 15.7435 27.6638 15.496 27.4639 16.3189C27.282 17.0717 25.7577 21.6403 23.8908 23.0761C21.3201 16.6153 28.3687 12.7009 28.1495 8.93752C34.5406 12.9793 33.2887 22.063 26.2875 24.63C25.121 26.0301 23.6943 27.3064 21.9596 28.5265L21.9597 28.5266Z" fill="#D7A444"/>
</svg>
