<svg width="46" height="41" viewBox="0 0 46 41" fill="none" xmlns="http://www.w3.org/2000/svg">
<path fill-rule="evenodd" clip-rule="evenodd" d="M26.3651 22.0174C26.2588 22.0407 26.1992 22.0502 26.1971 22.0508C25.6984 22.1999 23.0262 22.9987 21.6364 26.6927C21.5904 26.8148 21.5815 26.8458 21.5466 26.9537C21.5329 26.9963 21.5133 26.9718 21.0548 27.22C21.0029 27.0392 20.8389 26.9041 20.7871 26.7234C20.7862 26.7197 21.9476 22.7695 25.5136 21.4416C25.5925 21.4122 25.6814 21.3836 25.7795 21.3545C25.7376 21.4482 25.7334 21.5547 25.7687 21.6519C25.8074 21.7584 25.8898 21.8433 25.995 21.8854C26.1175 21.934 26.2409 21.978 26.3651 22.0174Z" fill="#D7A444"/>
<path fill-rule="evenodd" clip-rule="evenodd" d="M22.5383 19.6252C21.91 21.0898 20.7669 24.2974 21.9234 28.5385C22.1802 29.4805 22.4915 30.1252 22.5553 30.2572C22.5747 30.2974 22.5436 30.2934 22.3852 30.7897C22.2183 30.7028 22.0146 30.7039 21.8477 30.6169C21.8445 30.6153 20.226 27.499 20.7331 23.2617C20.9412 21.522 21.3997 20.3099 21.8657 19.175C21.866 19.2036 21.866 19.2322 21.8658 19.261C21.8651 19.3709 21.9099 19.4762 21.9897 19.552C22.0693 19.6277 22.1769 19.6667 22.2867 19.6603C22.2867 19.6603 22.3792 19.6557 22.5383 19.6252Z" fill="#D7A444"/>
<path fill-rule="evenodd" clip-rule="evenodd" d="M18.8425 21.364C19.4359 21.714 19.9462 22.0757 20.5402 23.076C21.2944 24.3459 21.4923 26.0256 21.4761 26.0532C21.382 26.2149 21.2115 26.3231 21.1172 26.4847C20.9861 26.3403 20.8137 26.237 20.6827 26.0926C20.6753 26.0844 20.6385 25.4407 20.3245 24.5168C19.8283 23.0572 19.1126 22.4581 18.4199 22.0313L18.5051 22.0393C18.6514 22.0527 18.7929 21.9841 18.8733 21.8612C18.9535 21.7382 18.9594 21.581 18.8886 21.4524C18.8886 21.4524 18.872 21.4223 18.8425 21.364Z" fill="#D7A444"/>
<path fill-rule="evenodd" clip-rule="evenodd" d="M8.73668 26.0485C9.23712 25.4729 9.95455 24.7382 10.7516 24.2044C11.8658 23.4582 13.1268 23.1203 14.2183 23.8914C16.6647 25.6196 18.2785 27.9523 19.3654 31.3992C20.0587 33.5976 21.336 33.9954 22.0302 34.2706C22.233 34.351 22.3967 34.4291 22.5108 34.5168C22.5537 34.5495 22.5914 34.5842 22.624 34.6204L22.7226 34.7596L22.7859 34.9307L22.8013 35.1113C22.7813 35.583 22.0824 37.2939 21.1622 38.6584C20.5164 39.6163 19.7497 40.3861 19.0768 40.5427C18.5812 40.6581 17.6852 40.5604 16.5144 40.1386C13.9785 39.225 10.0273 36.8009 6.05958 32.1018C0.367623 25.3611 0.201316 19.645 0.417534 17.4415C0.625751 15.321 3.66766 14.925 4.1622 17.0386C4.32907 17.752 4.65578 20.5563 5.65134 23.0686C6.23712 24.5471 7.04885 25.9321 8.2288 26.6662C8.31091 26.7247 8.41759 26.7844 8.55532 26.8432C10.3889 27.6279 11.9855 25.5882 12.1274 25.4217C12.2786 25.2442 12.3339 25.2621 12.336 25.0283C12.3364 24.9813 12.2392 25.0114 12.195 25.0272C12.144 25.0451 12.1089 25.0923 12.0653 25.1243C11.5578 25.4979 11.1061 25.741 10.8217 25.8671C9.6947 26.3673 9.13101 26.2001 8.98871 26.158C8.88832 26.1281 8.8064 26.0888 8.73668 26.0485Z" fill="#D7A444"/>
<path fill-rule="evenodd" clip-rule="evenodd" d="M37.2637 26.0485C36.7634 25.4729 36.046 24.7382 35.2487 24.2044C34.1347 23.4582 32.8736 23.1203 31.7822 23.8914C29.3358 25.6196 27.7221 27.9523 26.6351 31.3992C25.9419 33.5976 24.6645 33.9954 23.9704 34.2706C23.7675 34.351 23.6038 34.4291 23.4897 34.5168C23.4469 34.5495 23.4092 34.5842 23.3764 34.6204L23.2779 34.7596L23.2145 34.9307L23.1992 35.1113C23.2192 35.583 23.9182 37.2939 24.8383 38.6584C25.4841 39.6163 26.2508 40.3861 26.9237 40.5427C27.4194 40.6581 28.3153 40.5604 29.4861 40.1386C32.022 39.225 35.973 36.8009 39.9409 32.1018C45.6329 25.3611 45.7992 19.645 45.583 17.4415C45.3748 15.321 42.3329 14.925 41.8383 17.0386C41.6715 17.752 41.3446 20.5563 40.3492 23.0686C39.7632 24.5471 38.9517 25.9321 37.7717 26.6662C37.6896 26.7247 37.5827 26.7844 37.4452 26.8432C35.6116 27.6279 34.0151 25.5882 33.8731 25.4217C33.7219 25.2442 33.6666 25.2621 33.6645 25.0283C33.6642 24.9813 33.7613 25.0114 33.8055 25.0272C33.8564 25.0451 33.8916 25.0923 33.935 25.1243C34.4425 25.4979 34.8944 25.741 35.1788 25.8671C36.3058 26.3673 36.8695 26.2001 37.0118 26.158C37.1122 26.1281 37.1941 26.0888 37.2637 26.0485Z" fill="#D7A444"/>
<path fill-rule="evenodd" clip-rule="evenodd" d="M41.0294 17.0276C40.8596 17.0642 40.6905 17.1249 40.5268 17.2162C40.1436 17.4301 39.7805 17.8132 39.5244 18.4782C39.4854 18.58 39.4463 18.6878 39.4075 18.801C38.8609 20.3916 38.3401 23.1234 37.4531 25.0779C37.6156 25.25 37.7652 25.4166 37.8991 25.5713C38.65 24.8745 39.1869 23.8458 39.6107 22.7763C40.5213 20.4781 40.8556 17.9294 41.0294 17.0276Z" fill="#D7A444"/>
<path fill-rule="evenodd" clip-rule="evenodd" d="M38.7303 18.3372C38.5243 18.3534 38.3186 18.4035 38.1232 18.5004C37.7172 18.702 37.3364 19.1032 37.1078 19.8629C37.0714 19.9837 37.0365 20.1073 37.003 20.233C36.7001 21.3652 36.5031 22.6941 36.1172 23.8523C36.3766 24.0524 36.6252 24.267 36.8584 24.4846C37.6679 22.5971 38.1416 20.0438 38.6573 18.5429C38.6815 18.4724 38.7059 18.4038 38.7303 18.3372Z" fill="#D7A444"/>
<path fill-rule="evenodd" clip-rule="evenodd" d="M36.2606 19.9397C35.8402 20.0429 35.4592 20.287 35.25 20.7699C35.0149 21.3124 34.7692 22.1004 34.3691 22.8757C34.733 22.9999 35.0928 23.1734 35.4426 23.386C35.7815 22.3019 35.9566 21.0755 36.2366 20.0281C36.2446 19.9986 36.2526 19.969 36.2606 19.9397Z" fill="#D7A444"/>
<path fill-rule="evenodd" clip-rule="evenodd" d="M4.9707 17.0276C5.14063 17.0642 5.30979 17.1249 5.47343 17.2162C5.85672 17.4301 6.21962 17.8132 6.47585 18.4782C6.5149 18.58 6.55395 18.6878 6.59281 18.801C7.13936 20.3916 7.66019 23.1234 8.54696 25.0779C8.38466 25.25 8.23511 25.4166 8.10119 25.5713C7.35024 24.8745 6.81322 23.8458 6.38955 22.7763C5.47877 20.4781 5.14463 17.9294 4.9707 17.0276Z" fill="#D7A444"/>
<path fill-rule="evenodd" clip-rule="evenodd" d="M7.26953 18.3372C7.47546 18.3534 7.6812 18.4035 7.87666 18.5004C8.28242 18.702 8.66342 19.1032 8.89202 19.8629C8.92841 19.9837 8.96327 20.1073 8.9968 20.233C9.2995 21.3652 9.49667 22.6941 9.88262 23.8523C9.62316 24.0524 9.37456 24.267 9.14139 24.4846C8.33195 22.5971 7.85799 20.0438 7.34249 18.5429C7.3183 18.4724 7.29392 18.4038 7.26953 18.3372Z" fill="#D7A444"/>
<path fill-rule="evenodd" clip-rule="evenodd" d="M9.74023 19.9397C10.1605 20.0429 10.5417 20.287 10.7508 20.7699C10.9859 21.3124 11.2315 22.1004 11.6317 22.8757C11.2679 22.9999 10.908 23.1734 10.5582 23.386C10.2193 22.3019 10.0443 21.0755 9.76405 20.0281C9.75624 19.9986 9.74824 19.969 9.74023 19.9397Z" fill="#D7A444"/>
<path fill-rule="evenodd" clip-rule="evenodd" d="M21.8669 19.1751C21.8543 18.3114 21.5526 17.5939 21.1453 16.7396C20.4612 15.3047 19.4813 13.5193 18.8709 10.2627C17.8352 4.73518 20.817 0.747253 20.817 0.747253C20.9443 0.576565 21.1838 0.53675 21.3596 0.657146C21.3596 0.657146 27.1138 4.59498 26.9521 11.9186C26.87 15.636 25.7192 17.5503 24.6168 18.5453C23.7759 19.3043 22.9432 19.5481 22.5396 19.6252C22.5698 19.5546 22.599 19.4879 22.6266 19.4254C24.5354 15.1051 24.0163 13.1 23.1061 9.53484C22.2403 6.14393 22.4557 5.82599 22.358 5.62653C22.3258 5.56081 22.2243 5.54824 22.1921 5.48233C22.1702 5.55243 22.0702 5.57948 22.0483 5.64958C22.0231 5.72998 22.0559 5.81818 22.0606 5.90238C22.2599 9.52512 23.4134 11.7528 23.1535 14.6938C22.9867 16.5837 22.4213 17.8246 21.8669 19.1751Z" fill="#D7A444"/>
<path fill-rule="evenodd" clip-rule="evenodd" d="M18.421 22.0312C16.4428 21.8401 14.0943 21.2225 12.4351 19.4631C11.3082 18.2684 10.4902 16.5471 10.334 14.0609C9.9496 7.94181 14.8407 3.7409 14.8407 3.7409C14.9424 3.65346 15.0815 3.62355 15.2105 3.66127C15.3392 3.6988 15.4402 3.799 15.4791 3.9274C15.8271 5.08088 16.3938 6.01223 16.888 7.00817C17.6755 8.5956 18.2967 10.3341 17.7289 13.2417C16.9288 17.338 18.5452 20.7768 18.8435 21.3639C18.251 21.0147 17.5759 20.6773 16.6522 19.7292C13.1245 16.1087 14.1943 12.0926 14.192 12.0827C14.1696 11.984 14.0787 11.9095 14.0562 11.8109C13.9949 11.8918 13.879 11.9198 13.8179 12.0008C13.779 12.052 13.7863 12.1254 13.771 12.1877C12.8784 15.8586 14.5546 19.4073 17.417 21.4262C17.7249 21.6432 18.0699 21.815 18.421 22.0312Z" fill="#D7A444"/>
<path fill-rule="evenodd" clip-rule="evenodd" d="M25.7793 21.3544C25.7833 21.3452 25.7879 21.3363 25.7926 21.3275C25.7926 21.3275 27.8999 17.435 29.466 13.1888C30.9238 9.23589 33.3006 5.50303 37.7808 6.31628C42.2553 7.12857 43.9822 10.0933 43.9822 10.0933C44.045 10.1998 44.0546 10.3295 44.0081 10.4442C43.9616 10.5587 43.8644 10.6452 43.7452 10.6778C43.7452 10.6778 40.3028 11.6375 37.4518 15.879C35.6356 18.5813 33.2507 20.7248 30.8476 21.698C29.3203 22.3166 27.7832 22.4671 26.3649 22.0173C27.206 21.8337 30.9752 20.7874 32.4603 16.3945C32.7061 15.6676 32.9903 13.2442 35.2674 11.6777C36.0097 11.167 36.4565 11.0491 36.4704 11.0342C36.5224 10.979 36.526 10.889 36.5778 10.8338C36.5024 10.8205 36.4502 10.7393 36.3747 10.7262C36.3711 10.7256 35.1001 11.0818 33.9083 12.2669C31.8837 14.2803 32.4367 15.9095 30.7957 18.1427C28.9584 20.6434 26.8402 21.0389 25.7793 21.3544Z" fill="#D7A444"/>
</svg>
