<svg width="20" height="20" viewBox="0 0 20 20" fill="none" xmlns="http://www.w3.org/2000/svg">
<path d="M8.04767 16.0928C9.83558 16.0928 11.5723 15.4963 12.9829 14.3977L18.3043 19.7191C18.7018 20.103 19.3353 20.092 19.7192 19.6945C20.0937 19.3067 20.0937 18.6919 19.7192 18.3042L14.3978 12.9828C17.1239 9.47344 16.4891 4.41858 12.9798 1.69241C9.47046 -1.03376 4.41565 -0.398932 1.68948 3.11039C-1.03669 6.61971 -0.401862 11.6746 3.10746 14.4007C4.52028 15.4983 6.2586 16.0937 8.04767 16.0928ZM3.77194 3.77179C6.13338 1.4103 9.96205 1.41025 12.3235 3.7717C14.685 6.13315 14.6851 9.96181 12.3236 12.3233C9.96218 14.6848 6.13351 14.6848 3.77202 12.3234C3.77198 12.3234 3.77198 12.3234 3.77194 12.3233C1.41049 9.97906 1.39657 6.16436 3.74082 3.80291C3.75117 3.79251 3.76153 3.78215 3.77194 3.77179Z" fill="#D6A443"/>
</svg>
