<svg width="40" height="36" viewBox="0 0 40 36" fill="none" xmlns="http://www.w3.org/2000/svg">
<path d="M34.7897 32.5145C34.3254 32.5145 33.8974 32.2736 33.6665 31.8848H16.9668V32.2837H17.6749C18.1704 32.2837 18.575 32.67 18.5828 33.1467H28.2711C28.6317 33.1467 28.9248 33.4277 28.9248 33.7764C28.9248 34.1251 28.6317 34.4061 28.2711 34.4061H18.5828V34.81C18.5776 35.0509 18.4739 35.2641 18.3105 35.4197C18.147 35.5727 17.9188 35.6655 17.6672 35.6655H37.394C37.7545 35.6655 38.0477 35.3845 38.0477 35.0358V32.5145H34.7897ZM34.136 34.4061H30.878C30.5201 34.4061 30.227 34.1251 30.227 33.7764C30.227 33.4277 30.5201 33.1467 30.878 33.1467H34.136C34.4966 33.1467 34.7897 33.4277 34.7897 33.7764C34.7897 34.1251 34.4966 34.4061 34.136 34.4061Z" fill="#D7A444"/>
<path d="M19.1445 2.37113C19.1445 2.53922 19.212 2.69978 19.3364 2.8177L20.449 3.89397V2.64459C20.449 2.28583 20.5554 1.9346 20.7551 1.63354H19.1445V2.37113Z" fill="#D7A444"/>
<path d="M34.7852 30.2541V31.2526H39.3479C39.7084 31.2526 39.999 30.9717 39.999 30.6229V26.21H38.9666L34.7877 30.2516L34.7852 30.2541Z" fill="#D7A444"/>
<path d="M38.6964 12.9757C38.6964 13.3244 38.406 13.6054 38.0455 13.6054C37.685 13.6054 37.3945 13.8864 37.3945 14.2351V17.3862C37.3945 17.7349 37.685 18.0159 38.0455 18.0159C38.406 18.0159 38.6964 18.2969 38.6964 18.6456C38.6964 18.9943 38.9869 19.2753 39.3474 19.2753H39.9983V12.3435H39.3474C38.9869 12.3435 38.6964 12.6245 38.6964 12.9732V12.9757Z" fill="#D7A444"/>
<path d="M14.5858 1.11938V9.42601H13.2812V2.8931C13.2864 2.09531 13.8077 1.38532 14.5858 1.11938Z" fill="#D7A444"/>
<path d="M14.5858 12.8079V16.5861C14.5546 16.5284 14.5131 16.4757 14.4639 16.4281C14.3031 16.2575 14.0619 16.1571 13.8129 16.1571C13.6651 16.1571 13.5198 16.1922 13.3902 16.2575L13.2812 16.3101V12.8079H14.5858Z" fill="#D7A444"/>
<path d="M14.5858 19.8601V25.4773L13.2812 24.3258V21.0066L13.7844 20.5626L14.5858 19.8601Z" fill="#D7A444"/>
<path d="M39.3479 0.371582H34.7852V1.37008L38.964 5.41176H39.9964V1.00129C39.9964 0.652567 39.7058 0.371582 39.3453 0.371582H39.3479Z" fill="#D7A444"/>
<path d="M37.474 12.4288C37.7231 11.631 38.4831 11.0866 39.3443 11.0866V6.67361H38.963C38.618 6.67361 38.2859 6.54065 38.0421 6.30482L33.8607 2.26315C33.6195 2.02732 33.482 1.70619 33.4794 1.37252V1.00373H23.1737C22.9091 1.00122 22.6627 1.12917 22.5174 1.34242L21.8586 2.29576C21.7885 2.39862 21.7496 2.51904 21.7496 2.64448V4.34294C21.7341 4.94254 21.2205 5.4142 20.6005 5.39914C20.323 5.39413 20.0558 5.28625 19.8535 5.09809L18.4138 3.7057C18.0455 3.35196 17.8406 2.87278 17.8406 2.37102V1.00122H15.8848V9.42576H17.6694C18.17 9.42576 18.5773 9.81964 18.5773 10.3038V11.9521C18.5721 12.188 18.4683 12.4012 18.3023 12.5567C18.1363 12.7123 17.9106 12.8076 17.6616 12.8076H16.9612V14.2251C16.9405 15.8433 16.5877 17.203 15.8848 18.3345V26.9999C16.5151 28.016 16.8653 29.2152 16.9431 30.6251H18.4917V27.4741C18.4917 27.1253 18.7848 26.8418 19.1427 26.8418C19.5007 26.8418 19.7964 27.1253 19.7964 27.4741V30.6251H21.0986V29.3632C21.0986 29.017 21.3891 28.7335 21.7496 28.7335C22.1102 28.7335 22.4007 29.017 22.4007 29.3632V30.6251H28.2656V27.4741C28.2656 27.1253 28.5587 26.8418 28.9193 26.8418C29.2798 26.8418 29.5703 27.1253 29.5703 27.4741V30.6251H33.4794V30.2563C33.482 29.9201 33.6195 29.6015 33.8607 29.3632L38.0421 25.3215C38.2859 25.0857 38.618 24.9527 38.963 24.9527H39.3443V20.5397C38.4831 20.5397 37.7231 19.9953 37.474 19.1975C36.6492 18.9567 36.0863 18.2216 36.0863 17.3887V14.2376C36.0863 13.4047 36.6492 12.6696 37.474 12.4288ZM34.7841 14.9351C34.7815 15.5372 34.3432 16.054 33.731 16.1669C32.971 16.3224 32.377 16.897 32.2161 17.632C32.0994 18.2241 31.5651 18.6506 30.9425 18.6506H22.9844C22.3618 18.6506 21.8275 18.2241 21.7107 17.632C21.5499 16.897 20.9559 16.3224 20.1959 16.1694C19.5863 16.054 19.1453 15.5372 19.1427 14.9351V11.0188C19.1427 10.4167 19.5837 9.89993 20.1959 9.78703C20.9559 9.63399 21.5499 9.05948 21.7081 8.32189C21.8275 7.73233 22.3618 7.30583 22.9844 7.30583H30.9425C31.5651 7.30583 32.0994 7.73233 32.2161 8.32189C32.377 9.05697 32.971 9.63148 33.731 9.78703C34.3432 9.89993 34.7841 10.4167 34.7841 11.0188V14.9351Z" fill="#D7A444"/>
<path d="M22.9874 17.3761L30.9429 17.3887C31.1997 16.1544 32.1932 15.1885 33.4668 14.9301L33.4798 11.0214C32.7872 10.8784 32.1595 10.5246 31.6874 10.0128C31.3139 9.60389 31.0545 9.10966 30.9378 8.57529L22.9822 8.56274C22.8706 9.10214 22.6138 9.60389 22.2377 10.0178C21.7708 10.5296 21.1483 10.8809 20.4583 11.0214L20.4453 14.9326C21.003 15.0405 21.5218 15.2888 21.9498 15.6526C22.479 16.1042 22.8421 16.7063 22.9874 17.3736V17.3761Z" fill="#D7A444"/>
<path d="M9.02574 24.3332C9.24058 24.3332 9.41475 24.1647 9.41475 23.9569C9.41475 23.7491 9.24058 23.5806 9.02574 23.5806C8.81089 23.5806 8.63672 23.7491 8.63672 23.9569C8.63672 24.1647 8.81089 24.3332 9.02574 24.3332Z" fill="#D7A444"/>
<path d="M9.02574 25.821C9.24058 25.821 9.41475 25.6525 9.41475 25.4447C9.41475 25.2368 9.24058 25.0684 9.02574 25.0684C8.81089 25.0684 8.63672 25.2368 8.63672 25.4447C8.63672 25.6525 8.81089 25.821 9.02574 25.821Z" fill="#D7A444"/>
<path d="M11.7557 21.6737L13.434 20.191L14.2381 19.4836C15.6933 18.2141 16.4144 16.4931 16.4429 14.2176V12.3059H17.6621C17.8774 12.3109 18.0537 12.1478 18.0589 11.9396C18.0589 11.9371 18.0589 11.9346 18.0589 11.9296V10.3014C18.0589 10.0931 17.8851 9.92505 17.6698 9.92505H0.389089C0.173793 9.92756 0 10.0956 0 10.3039V11.9321C0 12.1403 0.173793 12.3084 0.389089 12.3084H1.60824V14.2151C1.63677 16.4856 2.36048 18.2066 3.81567 19.4735L4.74948 20.2964L6.30325 21.6687C6.63008 21.9071 6.835 22.2683 6.86613 22.6647C6.82463 23.0711 6.60674 23.4425 6.26693 23.6833L3.81048 25.8559C2.35529 27.1229 1.63418 28.8414 1.60305 31.1194V32.7802H0.389089C0.173793 32.7752 0 32.9433 0 33.1515C0 33.154 0 33.1565 0 33.1615V34.7897C0 34.998 0.173793 35.1661 0.389089 35.1661H17.6647C17.88 35.1711 18.0563 35.008 18.0615 34.7998C18.0615 34.7948 18.0615 34.7872 18.0615 34.7822V33.164C18.0615 32.9558 17.8877 32.7877 17.6724 32.7877H16.4429V31.1118C16.4144 28.8414 15.6933 27.1203 14.2381 25.8534L11.779 23.6783C11.4418 23.4399 11.2239 23.0711 11.185 22.6672C11.2187 22.2734 11.4263 21.9121 11.7531 21.6737H11.7557ZM10.4094 22.6697C10.4432 23.2869 10.7544 23.8589 11.2577 24.2377L13.7089 26.4104C15.0163 27.5468 15.6336 29.0446 15.6596 31.1169V32.7777H2.38642V31.1194C2.41495 29.0446 3.0323 27.5468 4.33964 26.4104L6.7961 24.2428C7.30451 23.8614 7.61578 23.2844 7.65209 22.6647C7.62097 22.0626 7.31747 21.5032 6.82463 21.1344L5.27086 19.762L4.33705 18.9392C3.0349 17.8027 2.41495 16.3049 2.38642 14.2327V12.3109H15.6673V14.2176C15.6414 16.2924 15.024 17.7901 13.7167 18.9266C13.4469 19.1624 13.1798 19.3983 12.9074 19.6391L11.2187 21.1344C10.7337 21.5107 10.438 22.0726 10.4068 22.6748L10.4094 22.6697Z" fill="#D7A444"/>
<path d="M14.15 17.2206C14.2356 17.0776 14.2123 16.8944 14.093 16.7765C13.9762 16.6536 13.7869 16.6235 13.6364 16.7012C12.1034 17.4564 11.5276 17.7399 9.14895 17.0023C7.62371 16.5206 5.96619 16.6285 4.52138 17.3033C4.32683 17.3912 4.24382 17.6169 4.33721 17.8051C4.35018 17.8302 4.36574 17.8528 4.3813 17.8753C4.53175 18.0459 7.91424 21.1845 7.94536 21.1845C8.19697 21.4629 8.34742 21.8117 8.38114 22.1804C8.42265 22.4991 8.71576 22.7299 9.04778 22.7048C9.36165 22.7349 9.6392 22.5116 9.67033 22.2106C9.67033 22.2106 9.67033 22.208 9.67033 22.2055C9.72999 21.7264 9.97382 21.2848 10.3551 20.9687C10.407 20.9235 10.6249 20.7228 10.9206 20.4494C11.6495 19.7745 12.8609 18.6456 13.1929 18.3621C13.5742 18.0359 13.8958 17.6521 14.15 17.2256V17.2206Z" fill="#D7A444"/>
<path d="M3.67252 31.5734C3.66733 31.7816 3.83593 31.9522 4.05123 31.9572C4.05642 31.9572 4.06161 31.9572 4.06679 31.9572H13.9886C14.2039 31.9572 14.3777 31.7892 14.3777 31.5809C14.3076 28.7209 11.8512 26.458 8.8941 26.5282C6.03818 26.5959 3.73736 28.8187 3.66992 31.5809V31.5709L3.67252 31.5734Z" fill="#D7A444"/>
</svg>
