<svg width="36" height="30" viewBox="0 0 36 30" fill="none" xmlns="http://www.w3.org/2000/svg">
<path d="M3.48981 24.8091C3.48981 24.8091 3.57581 24.8521 3.72939 24.9258C3.80618 24.9074 3.88604 24.8951 3.95975 24.8889L4.06418 24.8828C4.24847 24.8705 4.42355 24.8552 4.6017 24.8552C5.33886 24.8552 6.08216 25.0794 7.49813 26.2036L7.5227 26.222C7.74078 26.2373 7.93121 26.2251 8.09093 26.1821C4.27305 22.1522 2.78951 17.2532 2.68815 14.6946C4.11333 21.1724 7.66092 24.2808 7.66092 24.2808C7.66092 24.2808 8.88338 20.6687 7.20326 17.2378C5.52315 13.8069 2.94308 12.7258 1.60698 12.0132C1.10939 12.6244 -0.0731391 17.6279 0.498161 20.4045C1.06946 23.1812 3.48981 24.806 3.48981 24.806V24.8091Z" fill="#3C2517"/>
<path d="M1.61914 26.4002C1.61914 26.4002 3.03203 25.2023 3.97499 25.1347C4.91794 25.0672 5.54146 24.9596 7.36286 26.4002C7.16014 26.4555 5.0838 27.0667 3.22247 26.6981C4.16542 27.1066 5.34795 27.3923 7.99866 26.5353C7.93416 27.1066 6.76392 28.5779 5.10837 28.5779C3.45283 28.5779 1.61914 26.4002 1.61914 26.4002Z" fill="#3C2517"/>
<path d="M32.0337 24.1303C32.0337 24.1303 31.9324 24.1855 31.7604 24.2777C31.6744 24.2562 31.5853 24.2408 31.4962 24.2316L31.3764 24.2224C31.1645 24.204 30.9648 24.1886 30.756 24.1886C29.9082 24.1886 29.0544 24.4712 27.4234 25.8902L27.3988 25.9117C27.15 25.9302 26.9258 25.9179 26.7446 25.8626C31.1368 20.7823 32.8415 14.6024 32.9583 11.3743C31.3181 19.5445 27.236 23.4668 27.236 23.4668C27.236 23.4668 25.8293 18.9087 27.7643 14.584C29.6994 10.2593 32.6634 8.89558 34.2022 7.99255C34.7735 8.7635 36.1373 15.0724 35.4769 18.5739C34.8196 22.0754 32.0337 24.1272 32.0337 24.1272V24.1303Z" fill="#3C2517"/>
<path d="M34.1866 26.136C34.1866 26.136 32.5618 24.6248 31.4775 24.5388C30.3933 24.4528 29.6746 24.3146 27.5798 26.136C27.8132 26.2035 30.2029 26.9776 32.3406 26.5138C31.2564 27.0298 29.8926 27.3891 26.8457 26.308C26.9194 27.0298 28.2678 28.8819 30.1721 28.8819C32.0765 28.8819 34.1866 26.136 34.1866 26.136Z" fill="#3C2517"/>
<path d="M25.6039 0.639327C25.0695 0.0280971 22.4342 0.476537 21.7461 0.599398C21.0581 0.722258 19.0708 0.639327 18.8036 0.396678C18.5794 0.190887 17.6795 0.0710983 16.9208 0.0250256V10.8705C16.9208 11.6261 16.5676 12.0039 15.8581 12.0039H11.6102C10.9006 12.0039 10.5474 11.6261 10.5474 10.8705V6.89599C10.5474 6.1404 10.9006 5.7626 11.6102 5.7626H14.7984V7.46422H12.1415V10.3023H15.3298V5.36024H13.9629V4.09785H15.3298V0.193959C14.7892 0.335248 14.2455 0.498038 13.837 0.473466C13.1121 0.433536 12.2337 0.473466 11.8497 0.270746C11.4689 0.0680268 10.5873 -0.220695 9.51846 0.270746C8.44957 0.759116 8.41271 3.4129 8.41271 3.4129C8.60315 4.80122 8.64308 11.4142 8.64308 14.1509C8.64308 16.8876 8.33593 22.6037 8.41271 26.1144C8.4895 29.6252 10.056 29.9937 10.5136 29.9999C10.9713 30.006 11.6009 29.7757 11.9664 29.7081C13.7326 29.3856 18.4289 29.2443 19.12 29.2842C19.7589 29.3211 21.8751 29.5514 22.6645 29.7787V22.8801H21.2547V27.4198H19.6606V17.0658H21.2547V21.1785H23.1959C23.9054 21.1785 24.2586 21.5563 24.2586 22.3119V29.9845C24.5842 29.96 24.9098 29.9077 25.2262 29.8279C26.0278 29.6221 26.1814 27.0113 26.1814 27.0113C26.1814 27.0113 26.2183 7.90345 26.3718 5.33259C26.5254 2.75867 26.1415 1.25056 25.607 0.636256L25.6039 0.639327ZM19.3012 2.88767C19.3012 2.88767 19.7619 2.78017 19.9155 2.76788C20.711 2.7126 21.181 3.01975 22.0226 3.01975C22.2222 3.01975 22.8242 2.8846 22.8242 2.8846V3.61255C22.8242 3.61255 22.2222 3.74769 22.0226 3.74769C21.1595 3.74769 20.4438 3.45897 19.9155 3.49276C19.7589 3.50197 19.3012 3.61255 19.3012 3.61255V2.8846V2.88767ZM19.3012 4.67836C19.3012 4.26064 19.4978 4.05177 19.8879 4.05177H22.2376C22.6277 4.05177 22.8242 4.26064 22.8242 4.67836V5.19437H21.9427V4.84729H20.1827V5.19437H19.3012V4.67836ZM17.876 6.89292C17.876 6.13733 18.2293 5.75953 18.9388 5.75953H23.1897C23.8993 5.75953 24.2525 6.13733 24.2525 6.89292V10.8675C24.2525 11.623 23.8993 12.0008 23.1897 12.0008H18.9388C18.2293 12.0008 17.876 11.623 17.876 10.8675V6.89292ZM12.1415 27.4229H10.5474V22.6436H12.1415V27.4229ZM12.1415 22.0293H10.5474V21.1785H12.1415V22.0293ZM18.2016 27.4229H16.6075L16.6014 22.8832H14.6909V27.4229H13.0968V22.315C13.0968 21.5594 13.45 21.1816 14.1595 21.1816H17.1389C17.8484 21.1816 18.2016 21.5594 18.2016 22.315V27.4229ZM24.2525 19.6182H22.6584L22.6522 15.0785H18.1955V19.6182H16.6014V15.0754H12.1385V19.6151H10.5443V14.5072C10.5443 13.7516 10.8976 13.3707 11.6071 13.3707H23.1867C23.8962 13.3707 24.2494 13.7485 24.2494 14.5072V19.6151L24.2525 19.6182Z" fill="#3C2517"/>
<path d="M19.4707 7.46118H22.6589V10.2993H19.4707V7.46118Z" fill="#3C2517"/>
</svg>
