<svg width="24" height="24" viewBox="0 0 24 24" fill="none" xmlns="http://www.w3.org/2000/svg">
<path d="M22.7616 0H15.6467C14.9249 0 14.3578 0.567132 14.3578 1.28894C14.3578 2.01074 14.9249 2.57787 15.6467 2.57787H19.6166L14.8734 7.32116C11.2128 4.58861 6.00547 4.8464 2.70579 8.14608C-0.903232 11.7551 -0.903232 17.6842 2.70579 21.2932C6.31481 24.9023 12.2439 24.9023 15.8529 21.2932C19.1526 17.9936 19.462 12.7347 16.6779 9.12567L21.4212 4.38238V8.40387C21.4212 9.12567 21.9883 9.6928 22.7101 9.6928C23.4319 9.6928 23.999 9.12567 23.999 8.40387V1.28894C24.0506 0.567132 23.4834 0 22.7616 0ZM14.1 19.4887C11.4706 22.1182 7.19129 22.1182 4.56186 19.4887C1.93243 16.8593 1.93243 12.58 4.56186 9.95059C7.19129 7.32116 11.4706 7.32116 14.1 9.95059C16.7294 12.58 16.7294 16.8593 14.1 19.4887Z" fill="white"/>
</svg>
