<svg width="16" height="16" viewBox="0 0 16 16" fill="none" xmlns="http://www.w3.org/2000/svg">
<path d="M13.4005 13.4075C15.0567 11.9457 16 9.88928 16 7.71566C16 3.46124 12.4112 0 8 0C3.58876 0 0 3.46124 0 7.71566C0 12.7994 5.05086 16.5312 10.1688 15.1438C14.1823 16.0332 13.9724 15.9998 14.0632 15.9998C14.3755 15.9998 14.5797 15.6822 14.4397 15.4121L13.4005 13.4075ZM10.157 14.3183C10.1167 14.3183 10.0764 14.3239 10.0373 14.335C5.42808 15.6527 0.842105 12.2969 0.842105 7.71562C0.842105 3.90904 4.05314 0.812134 8 0.812134C11.9469 0.812134 15.1579 3.90904 15.1579 7.71562C15.1579 9.75645 14.2283 11.682 12.6075 12.9984C12.4586 13.1193 12.4151 13.3227 12.5021 13.4906L13.2868 15.0042C10.0933 14.2972 10.2472 14.3183 10.157 14.3183Z" fill="#B47700"/>
</svg>
