<svg width="19" height="16" viewBox="0 0 19 16" fill="none" xmlns="http://www.w3.org/2000/svg">
<path d="M0.650719 15.417C2.56366 11.8597 4.71924 9.165 10.9164 9.43448C11.0241 9.43448 11.186 9.59614 11.186 9.70404V12.3989C11.186 12.5876 11.4555 12.9378 11.7248 12.6684L18.9189 6.57811C19.0266 6.49728 19.0266 6.33562 18.9189 6.25479L11.7248 0.541271C11.59 0.433559 11.186 0.541271 11.186 0.81083V3.50566C11.186 3.61337 11.0243 3.77522 10.9164 3.77522C0.13878 4.85306 0.704607 13.2071 0.300445 15.2282C0.246504 15.4437 0.542899 15.6053 0.650777 15.4168L0.650719 15.417Z" fill="#B47700"/>
</svg>
